# xmcd
#
# Track frame offsets:
#	150
#	14301
#	24133
#	33715
#	46494
#	62603
#	75772
#	87687
#	99561
#	111950
#	121803
#
# Disc length: 1777 seconds
#
# Revision: 0
# Processed by: cddbd v1.5.2PL0 Copyright (c) Steve Scherf et al.
# Submitted via: SynApp - FreeCDDB Version: 2.3
#
DISCID=7f06ef0b
DTITLE=Peggy March - Get Happy
DYEAR=9998
DGENRE=pop
TTITLE0=Peggy March - Get Happy
TTITLE1=Peggy March - What The World Needs Now
TTITLE2=Peggy March - Falling In Love With Love
TTITLE3=Peggy March - Secret Love
TTITLE4=Peggy March - Mack The Knife
TTITLE5=Peggy March - Young At Heart
TTITLE6=Peggy March - While We're Young
TTITLE7=Peggy March - I Had The Craziest Dream
TTITLE8=Peggy March - For All We Know
TTITLE9=Peggy March - Feelin' Good
TTITLE10=Peggy March - It's That Time Again
EXTD=
EXTT0=
EXTT1=
EXTT2=
EXTT3=
EXTT4=
EXTT5=
EXTT6=
EXTT7=
EXTT8=
EXTT9=
EXTT10=
PLAYORDER=
